<svg width="41" height="38" viewBox="0 0 41 38" fill="none" xmlns="http://www.w3.org/2000/svg">
<path d="M24.1459 32.298C24.7274 31.9706 25.1502 31.4287 25.3211 30.7915C25.4921 30.1542 25.3972 29.4738 25.0574 28.9L23.7761 26.7363C23.4363 26.1624 22.8794 25.7421 22.2279 25.5678C21.5764 25.3935 20.8837 25.4795 20.3021 25.8069C15.9167 28.2755 13.3542 23.9481 12.073 21.7844C10.7917 19.6207 8.2292 15.2932 12.6146 12.8246C13.1962 12.4972 13.6189 11.9553 13.7899 11.3181C13.9608 10.6808 13.8659 10.0004 13.5261 9.42658L12.2449 7.26287C11.9051 6.68902 11.3481 6.26871 10.6966 6.09442C10.0452 5.92012 9.35244 6.00611 8.77089 6.33348C3.28908 9.41927 1.28125 13.4345 7.6875 24.253C14.0938 35.0716 18.6641 35.3838 24.1459 32.298Z" stroke="#1F2B6C" stroke-width="2" stroke-linecap="round" stroke-linejoin="round"/>
<path d="M35.8157 23.3629C36.9804 19.0112 36.3314 14.3661 34.0113 10.4479C31.6911 6.5298 27.8896 3.65921 23.442 2.46687M29.1022 21.5668C29.4492 20.2744 29.5325 18.925 29.3472 17.5956C29.162 16.2662 28.712 14.9829 28.0228 13.819C27.3335 12.6551 26.4187 11.6334 25.3305 10.8123C24.2423 9.9912 23.002 9.38678 21.6806 9.03356M22.4248 19.7577C22.6577 18.8869 22.5278 17.9575 22.0635 17.1735C21.5993 16.3895 20.8387 15.8151 19.9488 15.5763" stroke="#159EEC" stroke-width="2" stroke-linecap="round" stroke-linejoin="round"/>
</svg>
